#N canvas 76 78 783 595 10;
#X obj 152 194 comport 9600;
#X msg 47 177 devices;
#X floatatom 152 219 5 0 0 0 - - -;
#X msg 81 132 open 5;
#X obj 153 -23 vsl 15 128 0 127 0 0 empty empty empty 0 -9 0 10 -262144
-1 -1 0 1;
#X obj 365 193 gemhead;
#X obj 495 269 pix_video;
#X obj 494 329 pix_background;
#X msg 415 314 reset;
#X msg 586 294 \$1 \$1 \$1;
#X obj 589 266 hsl 128 15 0 1 0 0 empty empty empty -2 -8 0 10 -262144
-1 -1 0 1;
#X msg 495 234 dialog;
#X msg 406 255 reset;
#X msg 552 234 dimen 320 240;
#X obj 365 169 tgl 15 0 empty empty empty 17 7 0 10 -262144 -1 -1 0
1;
#X obj 494 299 pix_rgba;
#X obj 497 407 rectangle;
#X obj 496 362 pix_texture;
#X floatatom 523 382 5 0 0 0 - - -;
#X floatatom 568 382 5 0 0 0 - - -;
#X obj 426 83 tgl 15 0 empty empty empty 17 7 0 10 -262144 -1 -1 0
1;
#X msg 520 46 destroy;
#X obj 428 105 gemwin;
#X msg 522 70 create;
#X msg 521 95 dimen 320 240;
#X obj 189 119 hradio 15 1 0 8 empty empty empty 1 -8 0 10 -262144
-1 -1 0;
#X msg 170 420 sizeX sizeY;
#X msg 171 398 posX posY;
#X obj 91 443 pix_write;
#X msg 149 347 auto 0/1;
#X msg 150 372 file /Users/sean/Downloads/test;
#X obj 90 404 bng 15 250 50 0 empty empty empty 17 7 0 10 -262144 -1
-1;
#X floatatom 189 144 5 0 0 0 - - -;
#X obj 177 -46 tgl 15 0 empty empty empty 17 7 0 10 -262144 -1 -1 0
1;
#X obj 176 15 f;
#X floatatom 176 87 5 0 0 0 - - -;
#X obj 176 -28 metro;
#X floatatom 205 -48 5 0 0 0 - - -;
#X floatatom 104 69 5 0 0 0 - - -;
#X obj 176 40 - 1;
#X msg 226 -8 127;
#X floatatom 292 46 5 0 0 0 - - -;
#X obj 293 10 random 150;
#X obj 176 63 mod 127;
#X floatatom 59 223 5 0 0 0 - - -;
#X connect 0 0 2 0;
#X connect 1 0 0 0;
#X connect 3 0 0 0;
#X connect 4 0 0 0;
#X connect 5 0 6 0;
#X connect 5 0 28 0;
#X connect 6 0 15 0;
#X connect 7 0 17 0;
#X connect 8 0 7 0;
#X connect 9 0 7 1;
#X connect 10 0 9 0;
#X connect 11 0 6 0;
#X connect 12 0 6 0;
#X connect 13 0 6 0;
#X connect 14 0 5 0;
#X connect 15 0 7 0;
#X connect 17 0 16 0;
#X connect 18 0 16 1;
#X connect 19 0 16 2;
#X connect 20 0 22 0;
#X connect 21 0 22 0;
#X connect 23 0 22 0;
#X connect 24 0 22 0;
#X connect 25 0 0 0;
#X connect 25 0 32 0;
#X connect 26 0 28 2;
#X connect 27 0 28 1;
#X connect 28 0 6 0;
#X connect 29 0 28 0;
#X connect 30 0 28 0;
#X connect 31 0 28 0;
#X connect 33 0 36 0;
#X connect 34 0 39 0;
#X connect 35 0 31 0;
#X connect 36 0 34 0;
#X connect 36 0 42 0;
#X connect 37 0 36 1;
#X connect 38 0 4 0;
#X connect 39 0 34 1;
#X connect 39 0 43 0;
#X connect 40 0 34 1;
#X connect 41 0 0 0;
#X connect 42 0 41 0;
#X connect 43 0 35 0;
#X connect 44 0 0 0;
